#!OML:ASF E:\motion texture\Top Level 1\Subject 1\Session 1\male.ASF
:FULLY-SPECIFIED
:DEGREES
270
root -5.61604 17.8147 5.73443 122.795 -80.4095 -116.42
lowerback -1.63102 0.608671 6.18842
upperback -1.50022 0.634172 4.17328
thorax -0.606599 0.230043 0.835529
lowerneck -9.06224 -7.26935 -6.70574
upperneck 23.6104 -11.2697 6.60049
head 9.70849 -5.40046 2.07219
rclavicle -1.93815e-015 1.98785e-015
rhumerus -6.44506 -20.511 -62.3327
rradius 67.3748
rwrist -27.3167
rhand -6.86413 -31.9396
rfingers 7.12502
rthumb 19.0015 -61.0315
lclavicle -1.93815e-015 1.98785e-015
lhumerus -5.6744 7.50867 86.0126
lradius 64.0482
lwrist 30.8495
lhand -3.5946 25.3358
lfingers 7.12502
lthumb 22.1432 54.0877
rfemur -2.16118 2.38991 28.6221
rtibia 38.3446
rfoot -7.38038 -9.59184
rtoes -12.7802
lfemur -27.0637 -1.52976 -7.99212
ltibia 20.2453
lfoot 1.75092 3.99353
ltoes -0.48502
271
root -5.77156 17.8334 5.76103 123.68 -80.59 -117.431
lowerback -1.56261 0.596979 5.91188
upperback -1.49008 0.632323 4.11201
thorax -0.636551 0.233046 0.924966
lowerneck -8.93989 -7.35108 -6.78341
upperneck 23.2305 -11.3773 6.79036
head 9.57617 -5.44185 2.14361
rclavicle -9.90196e-015 4.25399e-014
rhumerus -7.68268 -19.1837 -62.2382
rradius 68.0653
rwrist -26.6965
rhand -7.28385 -32.3445
rfingers 7.12502
rthumb 18.5978 -61.4754
lclavicle -9.90196e-015 4.25399e-014
lhumerus -6.44107 6.81348 85.8464
lradius 63.3021
lwrist 28.9835
lhand -3.84789 25.2483
lfingers 7.12502
lthumb 21.9 54.0288
rfemur -3.06632 1.90295 27.9856
rtibia 40.3662
rfoot -5.06681 -9.45493
rtoes -11.1581
lfemur -26.3309 -1.45483 -8.51981
ltibia 20.2386
lfoot 1.58309 3.6823
ltoes 0.728349
272
root -5.92551 17.8521 5.78721 125.037 -80.8228 -118.911
lowerback -1.49122 0.58951 5.54573
upperback -1.48276 0.638181 4.03207
thorax -0.671564 0.241107 1.04509
lowerneck -8.833 -7.4316 -6.87019
upperneck 22.8412 -11.4841 7.00228
head 9.44648 -5.4814 2.22334
rclavicle 6.13748e-015 1.27222e-014
rhumerus -8.92513 -17.7751 -62.2235
rradius 68.7304
rwrist -26.1267
rhand -7.73746 -32.7874
rfingers 7.12502
rthumb 18.1614 -61.9595
lclavicle 6.13748e-015 1.27222e-014
lhumerus -7.24982 6.0627 85.7044
lradius 62.5305
lwrist 27.0546
lhand -4.14419 25.2864
lfingers 7.12502
lthumb 21.6155 54.1
rfemur -4.03145 1.43167 27.2675
rtibia 42.3822
rfoot -2.5188 -9.37912
rtoes -8.92441
lfemur -25.5634 -1.41038 -9.13416
ltibia 20.1547
lfoot 1.36398 3.47089
ltoes 1.67124
273
root -6.07751 17.8701 5.81255 126.775 -81.1032 -120.761
lowerback -1.43109 0.582127 5.10227
upperback -1.47442 0.644128 3.9362
thorax -0.699867 0.250485 1.19213
lowerneck -8.72749 -7.51488 -6.96408
upperneck 22.4207 -11.5941 7.23716
head 9.30945 -5.52126 2.31149
rclavicle 4.82053e-015 3.45885e-014
rhumerus -10.1595 -16.2937 -62.2933
rradius 69.3792
rwrist -25.6317
rhand -8.24429 -33.2586
rfingers 7.12502
rthumb 17.6738 -62.4753
lclavicle 4.82053e-015 3.45885e-014
lhumerus -8.09746 5.2464 85.5887
lradius 61.7714
lwrist 25.1399
lhand -4.48327 25.4728
lfingers 7.12502
lthumb 21.2898 54.3234
rfemur -5.04305 0.975537 26.4947
rtibia 44.3754
rfoot 0.130714 -9.36606
rtoes -6.1892
lfemur -24.7956 -1.39516 -9.82228
ltibia 20.0302
lfoot 1.09149 3.32949
ltoes 2.29942
274
root -6.22739 17.8872 5.83699 128.779 -81.42 -122.864
lowerback -1.37323 0.565978 4.61127
upperback -1.47357 0.638948 3.82287
thorax -0.735094 0.254857 1.34793
lowerneck -8.61529 -7.59556 -7.05205
upperneck 21.9773 -11.7022 7.48833
head 9.16501 -5.55931 2.40454
rclavicle 6.68413e-015 1.55052e-014
rhumerus -11.3897 -14.7654 -62.4763
rradius 70.0251
rwrist -25.1717
rhand -8.68331 -33.7786
rfingers 7.12502
rthumb 17.2513 -63.0329
lclavicle 6.68413e-015 1.55052e-014
lhumerus -8.98367 4.37272 85.4937
lradius 61.037
lwrist 23.3049
lhand -4.86509 25.7928
lfingers 7.12502
lthumb 20.923 54.6844
rfemur -6.08408 0.527365 25.6991
rtibia 46.3423
rfoot 2.68825 -9.48625
rtoes -3.38362
lfemur -24.0481 -1.39759 -10.5649
ltibia 19.8963
lfoot 0.753464 3.22074
ltoes 2.70358
275
root -6.37501 17.903 5.86028 130.91 -81.7543 -125.076
lowerback -1.32605 0.53873 4.0998
upperback -1.47582 0.617705 3.70394
thorax -0.767711 0.251493 1.50979
lowerneck -8.48852 -7.67585 -7.13591
upperneck 21.5018 -11.8086 7.74923
head 9.00831 -5.59675 2.50087
rclavicle 3.40419e-015 1.66979e-014
rhumerus -12.595 -13.2055 -62.7719
rradius 70.6552
rwrist -24.7013
rhand -9.07889 -34.3186
rfingers 7.12502
rthumb 16.8705 -63.6058
lclavicle 3.40419e-015 1.66979e-014
lhumerus -9.90831 3.44488 85.4346
lradius 60.3614
lwrist 21.6261
lhand -5.29996 26.2519
lfingers 7.12502
lthumb 20.5052 55.1891
rfemur -7.1449 0.0811188 24.9205
rtibia 48.2835
rfoot 4.9448 -9.79981
rtoes -0.957866
lfemur -23.3273 -1.4113 -11.3265
ltibia 19.7581
lfoot 0.365348 3.11936
ltoes 2.94179
276
root -6.52027 17.9172 5.88231 133.041 -82.0961 -127.277
lowerback -1.27555 0.49414 3.59196
upperback -1.48491 0.572775 3.58313
thorax -0.808865 0.236096 1.66803
lowerneck -8.34585 -7.74818 -7.20892
upperneck 20.999 -11.9032 8.01534
head 8.8394 -5.62909 2.59915
rclavicle 1.33558e-014 6.24184e-014
rhumerus -13.7854 -11.6012 -63.1812
rradius 71.2717
rwrist -24.1974
rhand -9.41984 -34.8384
rfingers 7.12502
rthumb 16.5423 -64.1533
lclavicle 1.33558e-014 6.24184e-014
lhumerus -10.8799 2.47198 85.4149
lradius 59.766
lwrist 20.1583
lhand -5.80406 26.873
lfingers 7.12502
lthumb 20.0207 55.8615
rfemur -8.21631 -0.374499 24.1826
rtibia 50.1931
rfoot 6.7182 -10.3637
rtoes 0.840132
lfemur -22.6354 -1.42706 -12.0839
ltibia 19.624
lfoot -0.052588 3.01157
ltoes 3.05186
277
root -6.66373 17.9304 5.90326 135.093 -82.423 -129.401
lowerback -1.22519 0.435056 3.10878
upperback -1.48745 0.506591 3.47068
thorax -0.842362 0.209835 1.8215
lowerneck -8.19056 -7.8107 -7.27158
upperneck 20.4646 -11.9824 8.28671
head 8.65726 -5.65451 2.69981
rclavicle 9.69075e-015 8.34896e-015
rhumerus -14.9321 -9.99277 -63.7141
rradius 71.8517
rwrist -23.5929
rhand -9.70294 -35.3159
rfingers 7.12502
rthumb 16.2697 -64.6533
lclavicle 9.69075e-015 8.34896e-015
lhumerus -11.8961 1.46212 85.4495
lradius 59.2703
lwrist 18.9345
lhand -6.42234 27.6201
lfingers 7.12502
lthumb 19.4263 56.6697
rfemur -9.27974 -0.838721 23.51
rtibia 52.0572
rfoot 7.90623 -11.2087
rtoes 1.99894
lfemur -21.9462 -1.43141 -12.8089
ltibia 19.4818
lfoot -0.474907 2.8964
ltoes 3.05731
278
root -6.80535 17.9425 5.92302 136.913 -82.7293 -131.289
lowerback -1.17044 0.357699 2.67034
upperback -1.487 0.414316 3.37109
thorax -0.8739 0.169888 1.96352
lowerneck -8.03424 -7.86061 -7.32185
upperneck 19.909 -12.0417 8.55871
head 8.46686 -5.67089 2.80091
rclavicle 1.65861e-014 -2.38542e-014
rhumerus -16.0422 -8.38311 -64.3683
rradius 72.3958
rwrist -22.8676
rhand -9.93591 -35.7502
rfingers 7.12502
rthumb 16.0454 -65.1058
lclavicle 1.65861e-014 -2.38542e-014
lhumerus -12.9443 0.433931 85.5469
lradius 58.8574
lwrist 17.9394
lhand -7.1746 28.4698
lfingers 7.12502
lthumb 18.7029 57.5906
rfemur -10.3391 -1.32381 22.9208
rtibia 53.8516
rfoot 8.51103 -12.3131
rtoes 2.76874
lfemur -21.269 -1.41593 -13.4812
ltibia 19.3386
lfoot -0.892419 2.75372
ltoes 2.94346
279
root -6.94502 17.954 5.9416 138.415 -83.0058 -132.86
lowerback -1.11444 0.268704 2.28552
upperback -1.47662 0.304414 3.28814
thorax -0.894424 0.120418 2.09301
lowerneck -7.88816 -7.89869 -7.36089
upperneck 19.3341 -12.0834 8.84063
head 8.27182 -5.67818 2.90491
rclavicle -2.33572e-015 -4.96962e-014
rhumerus -17.1021 -6.81329 -65.1387
rradius 72.8813
rwrist -22.0372
rhand -10.134 -36.1103
rfingers 7.12502
rthumb 15.8546 -65.4812
lclavicle -2.33572e-015 -4.96962e-014
lhumerus -14.0077 -0.605485 85.7216
lradius 58.5118
lwrist 17.1389
lhand -8.03319 29.3639
lfingers 7.12502
lthumb 17.8769 58.5623
rfemur -11.3906 -1.82592 22.4262
rtibia 55.5488
rfoot 8.58517 -13.5912
rtoes 3.48927
lfemur -20.5979 -1.38359 -14.0816
ltibia 19.1939
lfoot -1.30345 2.5947
ltoes 2.7657
280
root -7.08308 17.9653 5.9591 139.472 -83.2448 -133.984
lowerback -1.06296 0.170974 1.96619
upperback -1.45322 0.180419 3.22959
thorax -0.897527 0.0629613 2.21123
lowerneck -7.76666 -7.92857 -7.39744
upperneck 18.7503 -12.1111 9.1313
head 8.07896 -5.67817 3.01163
rclavicle 2.2736e-015 1.78906e-014
rhumerus -18.1055 -5.29859 -66.0155
rradius 73.3019
rwrist -21.155
rhand -10.3255 -36.4112
rfingers 7.12502
rthumb 15.6702 -65.7967
lclavicle 2.2736e-015 1.78906e-014
lhumerus -15.0532 -1.62981 85.988
lradius 58.197
lwrist 16.4657
lhand -8.9844 30.2281
lfingers 7.12502
lthumb 16.9615 59.5075
rfemur -12.43 -2.33868 22.0377
rtibia 57.1173
rfoot 8.24402 -14.9322
rtoes 4.44032
lfemur -19.9334 -1.33715 -14.5924
ltibia 19.0496
lfoot -1.70739 2.42668
ltoes 2.52545
281
root -7.21969 17.9766 5.97567 140.022 -83.4479 -134.593
lowerback -1.02092 0.0693101 1.71779
upperback -1.42116 0.0490198 3.1919
thorax -0.885171 0.000735549 2.31137
lowerneck -7.6536 -7.95887 -7.42998
upperneck 18.1542 -12.1385 9.43196
head 7.88547 -5.67793 3.12027
rclavicle -7.29291e-015 -3.18055e-015
rhumerus -19.0724 -3.83262 -66.9867
rradius 73.6663
rwrist -20.3264
rhand -10.5479 -36.6631
rfingers 7.12502
rthumb 15.4559 -66.0652
lclavicle -7.29291e-015 -3.18055e-015
lhumerus -16.0685 -2.62376 86.3471
lradius 57.89
lwrist 15.8424
lhand -9.95345 31.0916
lfingers 7.12502
lthumb 16.0285 60.4486
rfemur -13.4579 -2.85344 21.7523
rtibia 58.5318
rfoot 7.6626 -16.2197
rtoes 5.71042
lfemur -19.286 -1.29737 -15.0089
ltibia 18.9119
lfoot -2.10159 2.2674
ltoes 2.22902
282
root -7.35512 17.988 5.99147 140.14 -83.6074 -134.761
lowerback -0.989042 -0.029181 1.53613
upperback -1.38344 -0.0799569 3.17533
thorax -0.860549 -0.0613181 2.39592
lowerneck -7.5551 -7.99344 -7.46089
upperneck 17.5634 -12.1707 9.73484
head 7.69831 -5.68043 3.22769
rclavicle 1.63625e-014 -3.49861e-014
rhumerus -20.0201 -2.39562 -68.0411
rradius 73.9787
rwrist -19.6492
rhand -10.853 -36.8623
rfingers 7.12502
rthumb 15.1621 -66.2869
lclavicle 1.63625e-014 -3.49861e-014
lhumerus -17.0423 -3.55656 86.8026
lradius 57.5733
lwrist 15.1963
lhand -10.8814 31.9407
lfingers 7.12502
lthumb 15.1348 61.3673
rfemur -14.4753 -3.34509 21.5611
rtibia 59.7806
rfoot 6.9717 -17.3977
rtoes 7.03466
lfemur -18.6535 -1.26963 -15.3333
ltibia 18.7767
lfoot -2.48876 2.14439
ltoes 1.94839
283
root -7.48966 17.9997 6.00683 139.906 -83.7244 -134.57
lowerback -0.96416 -0.117982 1.41679
upperback -1.34801 -0.19719 3.17413
thorax -0.834206 -0.118439 2.46139
lowerneck -7.44681 -8.03526 -7.50058
upperneck 16.9861 -12.2153 10.0464
head 7.51754 -5.69041 3.3378
rclavicle -2.84511e-015 1.66979e-014
rhumerus -20.9728 -0.98972 -69.1727
rradius 74.2462
rwrist -19.1826
rhand -11.2041 -37.0463
rfingers 7.12502
rthumb 14.8239 -66.4961
lclavicle -2.84511e-015 1.66979e-014
lhumerus -17.9832 -4.41831 87.3518
lradius 57.2422
lwrist 14.483
lhand -11.7112 32.72
lfingers 7.12502
lthumb 14.3353 62.2051
rfemur -15.473 -3.80017 21.4472
rtibia 60.8572
rfoot 6.27874 -18.4182
rtoes 8.09271
lfemur -18.0243 -1.27122 -15.5779
ltibia 18.6333
lfoot -2.86651 2.07821
ltoes 1.72918
284
root -7.62346 18.0117 6.02194 139.474 -83.8025 -134.175
lowerback -0.946505 -0.192455 1.34328
upperback -1.3178 -0.296146 3.18459
thorax -0.809494 -0.167098 2.51317
lowerneck -7.34039 -8.08743 -7.54565
upperneck 16.4444 -12.2762 10.3526
head 7.35158 -5.7099 3.44454
rclavicle -1.2511e-014 1.82882e-014
rhumerus -21.9654 0.408886 -70.3689
rradius 74.505
rwrist -18.963
rhand -11.5753 -37.2246
rfingers 7.12502
rthumb 14.4662 -66.7004
lclavicle -1.2511e-014 1.82882e-014
lhumerus -18.8802 -5.19845 87.992
lradius 56.8964
lwrist 13.6998
lhand -12.4107 33.4694
lfingers 7.12502
lthumb 13.6612 63.001
rfemur -16.4522 -4.20699 21.3885
rtibia 61.7664
rfoot 5.63262 -19.2414
rtoes 8.8131
lfemur -17.3981 -1.29958 -15.7645
ltibia 18.4778
lfoot -3.23293 2.07453
ltoes 1.57563
